# xmcd
#
# Track frame offsets:
# 150
# 26862
# 43571
# 64356
# 88279
#
# Disc length: 1496 seconds
#
#
# Revision: 0
# Processed by: cddbd v1.4PL0 Copyright (c) Steve Scherf et al.
# Submitted via: FreeRIP 2.12 
#
DISCID=4405d605
DTITLE=Tavelin' Band - Alla ricerca delle isole
DYEAR=1998
DGENRE=Blues
TTITLE0=Cabo Verde
TTITLE1=Un feroce bisogno d'amore
TTITLE2=Brand new
TTITLE3=Separacao
TTITLE4=Isole
EXTD=4405d605
EXTT0=
EXTT1=
EXTT2=
EXTT3=
EXTT4=
PLAYORDER=
